<?xml version="1.0" standalone="no"?><!DOCTYPE svg PUBLIC "-//W3C//DTD SVG 1.1//EN" "http://www.w3.org/Graphics/SVG/1.1/DTD/svg11.dtd"><svg t="1740727792961" class="icon" viewBox="0 0 1024 1024" version="1.1" xmlns="http://www.w3.org/2000/svg" p-id="1575" width="64" height="64" xmlns:xlink="http://www.w3.org/1999/xlink"><path d="M533.942857 348.16c-8.777143 0-14.628571-5.851429-14.628571-14.628571v-204.8c0-11.702857-8.777143-20.48-19.017143-20.48H497.371429c-10.24 0-19.017143 8.777143-19.017143 20.48v204.8c0 8.777143-5.851429 14.628571-14.628572 14.628571s-14.628571-5.851429-14.628571-14.628571v-204.8c0-27.794286 21.942857-49.737143 48.274286-49.737143h2.925714c26.331429 0 48.274286 21.942857 48.274286 49.737143v204.8c0 7.314286-5.851429 14.628571-14.628572 14.628571z" fill="#1296db" p-id="1576"></path><path d="M604.16 348.16c-8.777143 0-14.628571-5.851429-14.628571-14.628571v-175.542858c0-11.702857-8.777143-20.48-19.017143-20.48h-2.925715c-10.24 0-19.017143 8.777143-19.017142 20.48v175.542858c0 8.777143-5.851429 14.628571-14.628572 14.628571s-14.628571-5.851429-14.628571-14.628571v-175.542858c0-27.794286 21.942857-49.737143 48.274285-49.737142h2.925715c26.331429 0 48.274286 21.942857 48.274285 49.737142v175.542858c0 7.314286-5.851429 14.628571-14.628571 14.628571zM533.942857 560.274286c-7.314286 0-13.165714-5.851429-14.628571-13.165715-14.628571-133.12-119.954286-128.731429-124.342857-128.731428-4.388571 0-7.314286-1.462857-10.24-4.388572-2.925714-2.925714-4.388571-7.314286-4.388572-10.24V156.525714c0-27.794286 21.942857-49.737143 48.274286-49.737143h2.925714c26.331429 0 48.274286 21.942857 48.274286 49.737143v175.542857c0 8.777143-5.851429 14.628571-14.628572 14.628572s-14.628571-5.851429-14.628571-14.628572v-175.542857c0-11.702857-8.777143-20.48-19.017143-20.48h-2.925714c-10.24 0-19.017143 8.777143-19.017143 20.48v234.057143c36.571429 4.388571 125.805714 26.331429 140.434286 153.6 1.462857 7.314286-4.388571 14.628571-13.165715 16.091429h-2.925714z" fill="#1296db" p-id="1577"></path><path d="M631.954286 617.325714H393.508571c-5.851429 0-10.24-2.925714-13.165714-7.314285l-115.565714-209.188572c-7.314286-13.165714-8.777143-29.257143-4.388572-43.885714 5.851429-14.628571 17.554286-26.331429 32.182858-33.645714 23.405714-10.24 51.2-2.925714 67.291428 17.554285l45.348572 55.588572c4.388571 5.851429 4.388571 16.091429-1.462858 20.48-5.851429 4.388571-16.091429 4.388571-20.48-1.462857l-45.348571-55.588572c-7.314286-10.24-21.942857-13.165714-33.645714-8.777143-14.628571 5.851429-21.942857 21.942857-13.165715 36.571429l112.64 201.874286h223.817143c8.777143-5.851429 35.108571-29.257143 32.182857-67.291429v-336.457143c0-11.702857-8.777143-20.48-19.017142-20.48h-2.925715c-10.24 0-19.017143 8.777143-19.017143 20.48v149.211429c0 8.777143-5.851429 14.628571-14.628571 14.628571s-14.628571-5.851429-14.628571-14.628571V182.857143c0-27.794286 21.942857-49.737143 48.274285-49.737143h2.925715c26.331429 0 48.274286 21.942857 48.274285 49.737143v334.994286c5.851429 62.902857-48.274286 95.085714-49.737143 96.548571-2.925714 1.462857-5.851429 2.925714-7.314285 2.925714z" fill="#1296db" p-id="1578"></path><path d="M639.268571 744.594286H409.6c-8.777143 0-14.628571-5.851429-14.628571-14.628572v-128.731428c0-8.777143 5.851429-14.628571 14.628571-14.628572h229.668571c8.777143 0 14.628571 5.851429 14.628572 14.628572v128.731428c0 8.777143-7.314286 14.628571-14.628572 14.628572z m-215.04-29.257143h200.411429v-99.474286H424.228571v99.474286z" fill="#1296db" p-id="1579"></path><path d="M512 829.44c-220.891429 0-400.822857-179.931429-400.822857-400.822857S291.108571 29.257143 512 29.257143s400.822857 179.931429 400.822857 400.822857S732.891429 829.44 512 829.44zM512 58.514286C307.2 58.514286 140.434286 225.28 140.434286 430.08c0 204.8 166.765714 371.565714 371.565714 371.565714s371.565714-166.765714 371.565714-371.565714C883.565714 225.28 716.8 58.514286 512 58.514286z" fill="#1296db" p-id="1580"></path><path d="M415.451429 895.268571c-8.777143 0-14.628571-5.851429-14.628572-14.628571v-77.531429c0-8.777143 5.851429-14.628571 14.628572-14.628571s14.628571 5.851429 14.628571 14.628571v77.531429c0 7.314286-5.851429 14.628571-14.628571 14.628571z" fill="#1296db" p-id="1581"></path><path d="M608.548571 895.268571c-8.777143 0-14.628571-5.851429-14.628571-14.628571v-77.531429c0-8.777143 5.851429-14.628571 14.628571-14.628571s14.628571 5.851429 14.628572 14.628571v77.531429c0 7.314286-7.314286 14.628571-14.628572 14.628571z" fill="#1296db" p-id="1582"></path><path d="M848.457143 994.742857H175.542857c-8.777143 0-14.628571-5.851429-14.628571-14.628571v-99.474286c0-8.777143 5.851429-14.628571 14.628571-14.628571h672.914286c8.777143 0 14.628571 5.851429 14.628571 14.628571V980.114286c0 8.777143-5.851429 14.628571-14.628571 14.628571z m-658.285714-29.257143h643.657142v-70.217143H190.171429V965.485714z" fill="#1296db" p-id="1583"></path></svg>